<svg id='icon' xmlns="http://www.w3.org/2000/svg" height="40" viewBox="0 96 960 960" width="40">
<path d="M416 696q-15.667 0-25.833-10.167Q380 675.667 380 660v-44h52v28h96v-48.667H416q-15 0-25.5-10.5t-10.5-25.5V492q0-15.667 10.167-25.833Q400.333 456 416 456h128q15.667 0 25.833 10.167Q580 476.333 580 492v44h-52v-28h-96v48.667h112q15 0 25.5 10.5t10.5 25.5V660q0 15.667-10.167 25.833Q559.667 696 544 696H416Zm260 0q-15.667 0-25.833-10.167Q640 675.667 640 660v-44h52v28h96v-48.667H676q-15 0-25.5-10.5t-10.5-25.5V492q0-15.667 10.167-25.833Q660.333 456 676 456h128q15.667 0 25.833 10.167Q840 476.333 840 492v44h-52v-28h-96v48.667h112q15 0 25.5 10.5t10.5 25.5V660q0 15.667-10.167 25.833Q819.667 696 804 696H676Zm-520 0q-15.667 0-25.833-10.167Q120 675.667 120 660V492q0-15.667 10.167-25.833Q140.333 456 156 456h128q15.667 0 25.833 10.167Q320 476.333 320 492v44h-52v-28h-96v136h96v-28h52v44q0 15.667-10.167 25.833Q299.667 696 284 696H156Z"/></svg>