<svg width="1440" height="1024" viewBox="0 0 1440 1024" fill="none" xmlns="http://www.w3.org/2000/svg">
<g filter="url(#filter0_d_0_1)">
<path d="M698.781 488.232L699.65 488.726L699.653 488.721L698.781 488.232ZM701.781 485.16L701.282 484.293L701.277 484.296L701.781 485.16ZM710.805 485.376L711.348 484.536L711.348 484.536L710.805 485.376ZM713.781 489.12V490.12H715.239L714.713 488.76L713.781 489.12ZM711.165 489.12L710.256 489.538L710.524 490.12H711.165V489.12ZM709.149 486.792L708.616 487.638L708.623 487.643L709.149 486.792ZM702.885 486.792L703.39 487.655L703.39 487.655L702.885 486.792ZM700.701 489.12L701.583 489.59L701.586 489.584L700.701 489.12ZM700.701 496.128L699.815 496.592L699.818 496.598L700.701 496.128ZM702.885 498.432L703.39 497.569L703.39 497.569L702.885 498.432ZM709.149 498.456L709.67 499.309L709.674 499.307L709.149 498.456ZM711.165 496.128V495.128H710.524L710.256 495.71L711.165 496.128ZM713.781 496.128L714.712 496.491L715.244 495.128H713.781V496.128ZM710.805 499.848L711.341 500.692L711.348 500.688L710.805 499.848ZM701.781 500.064L701.277 500.928L701.284 500.932L701.29 500.936L701.781 500.064ZM698.781 497.016L699.65 496.522L698.781 497.016ZM698.677 492.624C698.677 491.148 699.008 489.857 699.65 488.726L697.911 487.738C697.082 489.199 696.677 490.836 696.677 492.624H698.677ZM699.653 488.721C700.304 487.56 701.179 486.668 702.284 486.024L701.277 484.296C699.855 485.124 698.729 486.28 697.908 487.743L699.653 488.721ZM702.279 486.027C703.399 485.383 704.642 485.056 706.029 485.056V483.056C704.311 483.056 702.722 483.465 701.282 484.293L702.279 486.027ZM706.029 485.056C707.685 485.056 709.083 485.453 710.261 486.216L711.348 484.536C709.806 483.539 708.02 483.056 706.029 483.056V485.056ZM710.261 486.216C711.431 486.973 712.294 488.047 712.848 489.48L714.713 488.76C714.019 486.961 712.898 485.539 711.348 484.536L710.261 486.216ZM713.781 488.12H711.165V490.12H713.781V488.12ZM712.073 488.702C711.533 487.529 710.734 486.596 709.674 485.941L708.623 487.643C709.323 488.076 709.868 488.695 710.256 489.538L712.073 488.702ZM709.681 485.946C708.63 485.284 707.397 484.976 706.029 484.976V486.976C707.092 486.976 707.94 487.212 708.616 487.638L709.681 485.946ZM706.029 484.976C704.698 484.976 703.473 485.288 702.379 485.929L703.39 487.655C704.152 487.208 705.023 486.976 706.029 486.976V484.976ZM702.379 485.929C701.28 486.574 700.424 487.492 699.815 488.656L701.586 489.584C702.033 488.732 702.633 488.098 703.39 487.655L702.379 485.929ZM699.818 488.65C699.199 489.813 698.909 491.148 698.909 492.624H700.909C700.909 491.412 701.146 490.411 701.583 489.59L699.818 488.65ZM698.909 492.624C698.909 494.087 699.2 495.419 699.815 496.592L701.586 495.664C701.145 494.821 700.909 493.817 700.909 492.624H698.909ZM699.818 496.598C700.429 497.746 701.284 498.653 702.379 499.295L703.39 497.569C702.629 497.123 702.028 496.494 701.583 495.658L699.818 496.598ZM702.379 499.295C703.473 499.936 704.698 500.248 706.029 500.248V498.248C705.023 498.248 704.152 498.016 703.39 497.569L702.379 499.295ZM706.029 500.248C707.391 500.248 708.62 499.951 709.67 499.309L708.627 497.603C707.949 498.017 707.098 498.248 706.029 498.248V500.248ZM709.674 499.307C710.734 498.652 711.533 497.719 712.073 496.546L710.256 495.71C709.868 496.553 709.323 497.172 708.623 497.605L709.674 499.307ZM711.165 497.128H713.781V495.128H711.165V497.128ZM712.849 495.765C712.296 497.182 711.434 498.25 710.261 499.008L711.348 500.688C712.895 499.686 714.017 498.274 714.712 496.491L712.849 495.765ZM710.268 499.004C709.089 499.753 707.688 500.144 706.029 500.144V502.144C708.017 502.144 709.8 501.671 711.341 500.692L710.268 499.004ZM706.029 500.144C704.638 500.144 703.393 499.823 702.271 499.192L701.29 500.936C702.729 501.745 704.315 502.144 706.029 502.144V500.144ZM702.284 499.2C701.175 498.554 700.301 497.668 699.65 496.522L697.911 497.51C698.732 498.956 699.858 500.102 701.277 500.928L702.284 499.2ZM699.65 496.522C699.008 495.391 698.677 494.1 698.677 492.624H696.677C696.677 494.412 697.082 496.049 697.911 497.51L699.65 496.522ZM719.36 500.592L718.939 501.499L718.95 501.504L718.96 501.509L719.36 500.592ZM717.32 498.96L716.502 499.536L716.508 499.545L717.32 498.96ZM716.552 496.536V495.536H715.534L715.552 496.554L716.552 496.536ZM718.88 496.536L719.874 496.434L719.783 495.536H718.88V496.536ZM719.84 498.528L719.143 499.245L719.153 499.255L719.164 499.265L719.84 498.528ZM724.784 498.552L725.438 499.308L725.439 499.307L724.784 498.552ZM725.168 494.976L724.417 495.637L724.417 495.637L725.168 494.976ZM723.848 494.064L723.481 494.994L723.481 494.994L723.848 494.064ZM721.712 493.392L721.97 492.426L721.964 492.424L721.712 493.392ZM719.048 492.528L718.646 493.444L718.654 493.447L719.048 492.528ZM717.344 491.184L716.541 491.781L716.55 491.792L716.559 491.804L717.344 491.184ZM717.344 486.264L718.179 486.814L718.179 486.814L717.344 486.264ZM719.288 484.632L718.875 483.721L718.869 483.724L719.288 484.632ZM726.032 485.232L725.412 486.017L725.418 486.021L726.032 485.232ZM727.736 488.352V489.352H728.839L728.731 488.254L727.736 488.352ZM725.336 488.352L724.343 488.476L724.453 489.352H725.336V488.352ZM724.328 486.672L723.685 487.439L723.692 487.444L723.698 487.449L724.328 486.672ZM719.744 486.648L720.371 487.427L720.377 487.422L720.384 487.416L719.744 486.648ZM719.384 490.104L718.631 490.763L718.639 490.771L718.646 490.78L719.384 490.104ZM720.656 490.992L720.269 491.914L720.287 491.922L720.304 491.928L720.656 490.992ZM722.792 491.664L722.521 492.627L722.526 492.628L722.792 491.664ZM725.456 492.576L725.043 493.487L725.053 493.491L725.062 493.495L725.456 492.576ZM727.184 493.944L726.391 494.554L726.399 494.564L727.184 493.944ZM727.256 498.744L728.113 499.258L728.113 499.258L727.256 498.744ZM725.336 500.496L724.868 499.612L725.336 500.496ZM722.336 500.168C721.349 500.168 720.496 499.997 719.76 499.675L718.96 501.509C719.983 501.955 721.114 502.168 722.336 502.168V500.168ZM719.78 499.685C719.052 499.348 718.514 498.907 718.131 498.375L716.508 499.545C717.117 500.389 717.939 501.036 718.939 501.499L719.78 499.685ZM718.137 498.384C717.763 497.854 717.564 497.243 717.551 496.518L715.552 496.554C715.571 497.653 715.884 498.658 716.502 499.536L718.137 498.384ZM716.552 497.536H718.88V495.536H716.552V497.536ZM717.885 496.638C717.988 497.653 718.412 498.536 719.143 499.245L720.536 497.811C720.147 497.432 719.931 496.987 719.874 496.434L717.885 496.638ZM719.164 499.265C719.986 500.019 721.096 500.32 722.336 500.32V498.32C721.399 498.32 720.845 498.093 720.515 497.791L719.164 499.265ZM722.336 500.32C723.536 500.32 724.612 500.023 725.438 499.308L724.129 497.796C723.772 498.105 723.215 498.32 722.336 498.32V500.32ZM725.439 499.307C726.269 498.586 726.696 497.637 726.696 496.536H724.696C724.696 497.067 724.514 497.462 724.128 497.797L725.439 499.307ZM726.696 496.536C726.696 495.704 726.462 494.933 725.918 494.315L724.417 495.637C724.577 495.819 724.696 496.088 724.696 496.536H726.696ZM725.918 494.315C725.455 493.789 724.88 493.396 724.214 493.134L723.481 494.994C723.871 495.148 724.177 495.363 724.417 495.637L725.918 494.315ZM724.214 493.134C723.636 492.906 722.883 492.671 721.97 492.426L721.453 494.358C722.332 494.593 723.003 494.806 723.481 494.994L724.214 493.134ZM721.964 492.424C720.885 492.143 720.05 491.869 719.442 491.609L718.654 493.447C719.39 493.763 720.33 494.065 721.459 494.36L721.964 492.424ZM719.45 491.612C718.956 491.395 718.515 491.055 718.128 490.564L716.559 491.804C717.132 492.529 717.828 493.085 718.646 493.444L719.45 491.612ZM718.146 490.587C717.847 490.186 717.648 489.585 717.648 488.688H715.648C715.648 489.871 715.912 490.934 716.541 491.781L718.146 490.587ZM717.648 488.688C717.648 487.955 717.831 487.342 718.179 486.814L716.509 485.714C715.928 486.594 715.648 487.597 715.648 488.688H717.648ZM718.179 486.814C718.531 486.279 719.029 485.853 719.707 485.54L718.869 483.724C717.883 484.179 717.084 484.841 716.509 485.714L718.179 486.814ZM719.7 485.543C720.398 485.227 721.222 485.056 722.192 485.056V483.056C720.985 483.056 719.873 483.269 718.875 483.721L719.7 485.543ZM722.192 485.056C723.59 485.056 724.635 485.403 725.412 486.017L726.652 484.447C725.444 483.493 723.929 483.056 722.192 483.056V485.056ZM725.418 486.021C726.204 486.633 726.639 487.421 726.74 488.45L728.731 488.254C728.576 486.691 727.875 485.399 726.646 484.443L725.418 486.021ZM727.736 487.352H725.336V489.352H727.736V487.352ZM726.328 488.228C726.21 487.286 725.711 486.506 724.957 485.895L723.698 487.449C724.128 487.798 724.301 488.138 724.343 488.476L726.328 488.228ZM724.97 485.905C724.154 485.222 723.123 484.928 721.976 484.928V486.928C722.78 486.928 723.317 487.13 723.685 487.439L724.97 485.905ZM721.976 484.928C720.882 484.928 719.896 485.22 719.103 485.88L720.384 487.416C720.743 487.116 721.245 486.928 721.976 486.928V484.928ZM719.116 485.869C718.268 486.552 717.88 487.515 717.88 488.616H719.88C719.88 488.021 720.067 487.672 720.371 487.427L719.116 485.869ZM717.88 488.616C717.88 489.417 718.106 490.163 718.631 490.763L720.136 489.445C719.989 489.277 719.88 489.031 719.88 488.616H717.88ZM718.646 490.78C719.099 491.274 719.644 491.652 720.269 491.914L721.042 490.07C720.675 489.916 720.372 489.702 720.121 489.428L718.646 490.78ZM720.304 491.928C720.855 492.135 721.599 492.368 722.521 492.627L723.062 490.701C722.161 490.448 721.48 490.233 721.007 490.056L720.304 491.928ZM722.526 492.628C723.604 492.925 724.437 493.213 725.043 493.487L725.868 491.665C725.13 491.331 724.187 491.011 723.057 490.7L722.526 492.628ZM725.062 493.495C725.565 493.711 726.007 494.055 726.391 494.554L727.976 493.334C727.4 492.585 726.691 492.017 725.85 491.657L725.062 493.495ZM726.399 494.564C726.696 494.941 726.904 495.528 726.904 496.44H728.904C728.904 495.24 728.631 494.163 727.968 493.324L726.399 494.564ZM726.904 496.44C726.904 497.069 726.74 497.66 726.398 498.23L728.113 499.258C728.635 498.388 728.904 497.443 728.904 496.44H726.904ZM726.398 498.23C726.073 498.772 725.578 499.237 724.868 499.612L725.803 501.38C726.789 500.859 727.574 500.156 728.113 499.258L726.398 498.23ZM724.868 499.612C724.191 499.97 723.357 500.168 722.336 500.168V502.168C723.618 502.168 724.785 501.918 725.803 501.38L724.868 499.612ZM733.446 500.592L733.025 501.499L733.035 501.504L733.046 501.509L733.446 500.592ZM731.406 498.96L730.588 499.536L730.594 499.545L731.406 498.96ZM730.638 496.536V495.536H729.62L729.638 496.554L730.638 496.536ZM732.966 496.536L733.96 496.434L733.869 495.536H732.966V496.536ZM733.926 498.528L733.229 499.245L733.239 499.255L733.25 499.265L733.926 498.528ZM738.87 498.552L739.524 499.308L739.525 499.307L738.87 498.552ZM739.254 494.976L738.503 495.637L738.503 495.637L739.254 494.976ZM737.934 494.064L737.567 494.994L737.567 494.994L737.934 494.064ZM735.798 493.392L736.056 492.426L736.05 492.424L735.798 493.392ZM733.134 492.528L732.732 493.444L732.74 493.447L733.134 492.528ZM731.43 491.184L730.627 491.781L730.636 491.792L730.645 491.804L731.43 491.184ZM731.43 486.264L732.264 486.814L732.264 486.814L731.43 486.264ZM733.374 484.632L732.961 483.721L732.954 483.724L733.374 484.632ZM740.118 485.232L739.497 486.017L739.504 486.021L740.118 485.232ZM741.822 488.352V489.352H742.925L742.817 488.254L741.822 488.352ZM739.422 488.352L738.429 488.476L738.539 489.352H739.422V488.352ZM738.414 486.672L737.771 487.439L737.777 487.444L737.784 487.449L738.414 486.672ZM733.83 486.648L734.457 487.427L734.463 487.422L734.47 487.416L733.83 486.648ZM733.47 490.104L732.717 490.763L732.725 490.771L732.732 490.78L733.47 490.104ZM734.742 490.992L734.355 491.914L734.372 491.922L734.39 491.928L734.742 490.992ZM736.878 491.664L736.607 492.627L736.612 492.628L736.878 491.664ZM739.542 492.576L739.129 493.487L739.138 493.491L739.148 493.495L739.542 492.576ZM741.27 493.944L740.477 494.554L740.485 494.564L741.27 493.944ZM741.342 498.744L742.199 499.258L742.199 499.258L741.342 498.744ZM739.422 500.496L738.954 499.612L739.422 500.496ZM736.422 500.168C735.435 500.168 734.582 499.997 733.845 499.675L733.046 501.509C734.069 501.955 735.2 502.168 736.422 502.168V500.168ZM733.866 499.685C733.138 499.348 732.6 498.907 732.217 498.375L730.594 499.545C731.203 500.389 732.025 501.036 733.025 501.499L733.866 499.685ZM732.223 498.384C731.849 497.854 731.65 497.243 731.637 496.518L729.638 496.554C729.657 497.653 729.97 498.658 730.588 499.536L732.223 498.384ZM730.638 497.536H732.966V495.536H730.638V497.536ZM731.971 496.638C732.074 497.653 732.498 498.536 733.229 499.245L734.622 497.811C734.233 497.432 734.017 496.987 733.96 496.434L731.971 496.638ZM733.25 499.265C734.072 500.019 735.182 500.32 736.422 500.32V498.32C735.485 498.32 734.931 498.093 734.601 497.791L733.25 499.265ZM736.422 500.32C737.622 500.32 738.697 500.023 739.524 499.308L738.215 497.796C737.858 498.105 737.301 498.32 736.422 498.32V500.32ZM739.525 499.307C740.355 498.586 740.782 497.637 740.782 496.536H738.782C738.782 497.067 738.6 497.462 738.214 497.797L739.525 499.307ZM740.782 496.536C740.782 495.704 740.548 494.933 740.004 494.315L738.503 495.637C738.663 495.819 738.782 496.088 738.782 496.536H740.782ZM740.004 494.315C739.541 493.789 738.966 493.396 738.3 493.134L737.567 494.994C737.957 495.148 738.262 495.363 738.503 495.637L740.004 494.315ZM738.3 493.134C737.722 492.906 736.969 492.671 736.056 492.426L735.539 494.358C736.418 494.593 737.089 494.806 737.567 494.994L738.3 493.134ZM736.05 492.424C734.971 492.143 734.136 491.869 733.527 491.609L732.74 493.447C733.475 493.763 734.416 494.065 735.545 494.36L736.05 492.424ZM733.536 491.612C733.041 491.395 732.601 491.055 732.214 490.564L730.645 491.804C731.218 492.529 731.914 493.085 732.732 493.444L733.536 491.612ZM732.232 490.587C731.933 490.186 731.734 489.585 731.734 488.688H729.734C729.734 489.871 729.998 490.934 730.627 491.781L732.232 490.587ZM731.734 488.688C731.734 487.955 731.917 487.342 732.264 486.814L730.595 485.714C730.014 486.594 729.734 487.597 729.734 488.688H731.734ZM732.264 486.814C732.617 486.279 733.115 485.853 733.793 485.54L732.954 483.724C731.968 484.179 731.17 484.841 730.595 485.714L732.264 486.814ZM733.786 485.543C734.484 485.227 735.308 485.056 736.278 485.056V483.056C735.071 483.056 733.959 483.269 732.961 483.721L733.786 485.543ZM736.278 485.056C737.676 485.056 738.721 485.403 739.497 486.017L740.738 484.447C739.53 483.493 738.015 483.056 736.278 483.056V485.056ZM739.504 486.021C740.29 486.633 740.725 487.421 740.826 488.45L742.817 488.254C742.662 486.691 741.961 485.399 740.731 484.443L739.504 486.021ZM741.822 487.352H739.422V489.352H741.822V487.352ZM740.414 488.228C740.296 487.286 739.797 486.506 739.043 485.895L737.784 487.449C738.214 487.798 738.387 488.138 738.429 488.476L740.414 488.228ZM739.056 485.905C738.24 485.222 737.209 484.928 736.062 484.928V486.928C736.866 486.928 737.403 487.13 737.771 487.439L739.056 485.905ZM736.062 484.928C734.968 484.928 733.982 485.22 733.189 485.88L734.47 487.416C734.829 487.116 735.331 486.928 736.062 486.928V484.928ZM733.202 485.869C732.354 486.552 731.966 487.515 731.966 488.616H733.966C733.966 488.021 734.153 487.672 734.457 487.427L733.202 485.869ZM731.966 488.616C731.966 489.417 732.192 490.163 732.717 490.763L734.222 489.445C734.075 489.277 733.966 489.031 733.966 488.616H731.966ZM732.732 490.78C733.185 491.274 733.73 491.652 734.355 491.914L735.128 490.07C734.761 489.916 734.458 489.702 734.207 489.428L732.732 490.78ZM734.39 491.928C734.941 492.135 735.685 492.368 736.607 492.627L737.148 490.701C736.246 490.448 735.566 490.233 735.093 490.056L734.39 491.928ZM736.612 492.628C737.69 492.925 738.523 493.213 739.129 493.487L739.954 491.665C739.216 491.331 738.273 491.011 737.143 490.7L736.612 492.628ZM739.148 493.495C739.65 493.711 740.093 494.055 740.477 494.554L742.062 493.334C741.486 492.585 740.777 492.017 739.935 491.657L739.148 493.495ZM740.485 494.564C740.782 494.941 740.99 495.528 740.99 496.44H742.99C742.99 495.24 742.717 494.163 742.054 493.324L740.485 494.564ZM740.99 496.44C740.99 497.069 740.826 497.66 740.484 498.23L742.199 499.258C742.721 498.388 742.99 497.443 742.99 496.44H740.99ZM740.484 498.23C740.159 498.772 739.664 499.237 738.954 499.612L739.889 501.38C740.875 500.859 741.66 500.156 742.199 499.258L740.484 498.23ZM738.954 499.612C738.277 499.97 737.443 500.168 736.422 500.168V502.168C737.704 502.168 738.87 501.918 739.889 501.38L738.954 499.612Z" fill="white"/>
</g>
<defs>
<filter id="filter0_d_0_1" x="693.677" y="484.056" width="52.313" height="25.112" filterUnits="userSpaceOnUse" color-interpolation-filters="sRGB">
<feFlood flood-opacity="0" result="BackgroundImageFix"/>
<feColorMatrix in="SourceAlpha" type="matrix" values="0 0 0 0 0 0 0 0 0 0 0 0 0 0 0 0 0 0 127 0" result="hardAlpha"/>
<feOffset dy="4"/>
<feGaussianBlur stdDeviation="2"/>
<feComposite in2="hardAlpha" operator="out"/>
<feColorMatrix type="matrix" values="0 0 0 0 0 0 0 0 0 0 0 0 0 0 0 0 0 0 0.25 0"/>
<feBlend mode="normal" in2="BackgroundImageFix" result="effect1_dropShadow_0_1"/>
<feBlend mode="normal" in="SourceGraphic" in2="effect1_dropShadow_0_1" result="shape"/>
</filter>
</defs>
</svg>
