<svg width="1440" height="1024" viewBox="0 0 1440 1024" fill="none" xmlns="http://www.w3.org/2000/svg">
<g filter="url(#filter0_d_0_1)">
<path d="M704.42 484.272H705.42V483.272H704.42V484.272ZM704.42 501V502H705.42V501H704.42ZM702.236 501H701.236V502H702.236V501ZM702.236 493.416H703.236V492.416H702.236V493.416ZM693.716 493.416V492.416H692.716V493.416H693.716ZM693.716 501V502H694.716V501H693.716ZM691.532 501H690.532V502H691.532V501ZM691.532 484.272V483.272H690.532V484.272H691.532ZM693.716 484.272H694.716V483.272H693.716V484.272ZM693.716 491.616H692.716V492.616H693.716V491.616ZM702.236 491.616V492.616H703.236V491.616H702.236ZM702.236 484.272V483.272H701.236V484.272H702.236ZM703.42 484.272V501H705.42V484.272H703.42ZM704.42 500H702.236V502H704.42V500ZM703.236 501V493.416H701.236V501H703.236ZM702.236 492.416H693.716V494.416H702.236V492.416ZM692.716 493.416V501H694.716V493.416H692.716ZM693.716 500H691.532V502H693.716V500ZM692.532 501V484.272H690.532V501H692.532ZM691.532 485.272H693.716V483.272H691.532V485.272ZM692.716 484.272V491.616H694.716V484.272H692.716ZM693.716 492.616H702.236V490.616H693.716V492.616ZM703.236 491.616V484.272H701.236V491.616H703.236ZM702.236 485.272H704.42V483.272H702.236V485.272ZM718.445 484.272H719.445V483.272H718.445V484.272ZM718.445 486.048V487.048H719.445V486.048H718.445ZM713.885 486.048V485.048H712.885V486.048H713.885ZM713.885 501V502H714.885V501H713.885ZM711.701 501H710.701V502H711.701V501ZM711.701 486.048H712.701V485.048H711.701V486.048ZM707.117 486.048H706.117V487.048H707.117V486.048ZM707.117 484.272V483.272H706.117V484.272H707.117ZM717.445 484.272V486.048H719.445V484.272H717.445ZM718.445 485.048H713.885V487.048H718.445V485.048ZM712.885 486.048V501H714.885V486.048H712.885ZM713.885 500H711.701V502H713.885V500ZM712.701 501V486.048H710.701V501H712.701ZM711.701 485.048H707.117V487.048H711.701V485.048ZM708.117 486.048V484.272H706.117V486.048H708.117ZM707.117 485.272H718.445V483.272H707.117V485.272ZM738.101 484.392H739.101V483.392H738.101V484.392ZM738.101 501V502H739.101V501H738.101ZM735.917 501H734.917V502H735.917V501ZM735.917 488.616H736.917L735.004 488.209L735.917 488.616ZM730.397 501V502H731.046L731.311 501.407L730.397 501ZM728.861 501L727.948 501.408L728.213 502H728.861V501ZM723.317 488.592L724.23 488.184L722.317 488.592H723.317ZM723.317 501V502H724.317V501H723.317ZM721.133 501H720.133V502H721.133V501ZM721.133 484.392V483.392H720.133V484.392H721.133ZM723.485 484.392L724.398 483.983L724.133 483.392H723.485V484.392ZM729.629 498.12L728.716 498.529L729.629 500.568L730.542 498.529L729.629 498.12ZM735.773 484.392V483.392H735.125L734.86 483.983L735.773 484.392ZM737.101 484.392V501H739.101V484.392H737.101ZM738.101 500H735.917V502H738.101V500ZM736.917 501V488.616H734.917V501H736.917ZM735.004 488.209L729.484 500.593L731.311 501.407L736.831 489.023L735.004 488.209ZM730.397 500H728.861V502H730.397V500ZM729.774 500.592L724.23 488.184L722.404 489L727.948 501.408L729.774 500.592ZM722.317 488.592V501H724.317V488.592H722.317ZM723.317 500H721.133V502H723.317V500ZM722.133 501V484.392H720.133V501H722.133ZM721.133 485.392H723.485V483.392H721.133V485.392ZM722.572 484.801L728.716 498.529L730.542 497.711L724.398 483.983L722.572 484.801ZM730.542 498.529L736.686 484.801L734.86 483.983L728.716 497.711L730.542 498.529ZM735.773 485.392H738.101V483.392H735.773V485.392ZM743.989 499.224H742.989V500.224H743.989V499.224ZM749.845 499.224H750.845V498.224H749.845V499.224ZM749.845 501V502H750.845V501H749.845ZM741.805 501H740.805V502H741.805V501ZM741.805 484.272V483.272H740.805V484.272H741.805ZM743.989 484.272H744.989V483.272H743.989V484.272ZM743.989 500.224H749.845V498.224H743.989V500.224ZM748.845 499.224V501H750.845V499.224H748.845ZM749.845 500H741.805V502H749.845V500ZM742.805 501V484.272H740.805V501H742.805ZM741.805 485.272H743.989V483.272H741.805V485.272ZM742.989 484.272V499.224H744.989V484.272H742.989Z" fill="white"/>
</g>
<defs>
<filter id="filter0_d_0_1" x="687.532" y="484.272" width="66.3134" height="24.728" filterUnits="userSpaceOnUse" color-interpolation-filters="sRGB">
<feFlood flood-opacity="0" result="BackgroundImageFix"/>
<feColorMatrix in="SourceAlpha" type="matrix" values="0 0 0 0 0 0 0 0 0 0 0 0 0 0 0 0 0 0 127 0" result="hardAlpha"/>
<feOffset dy="4"/>
<feGaussianBlur stdDeviation="2"/>
<feComposite in2="hardAlpha" operator="out"/>
<feColorMatrix type="matrix" values="0 0 0 0 0 0 0 0 0 0 0 0 0 0 0 0 0 0 0.25 0"/>
<feBlend mode="normal" in2="BackgroundImageFix" result="effect1_dropShadow_0_1"/>
<feBlend mode="normal" in="SourceGraphic" in2="effect1_dropShadow_0_1" result="shape"/>
</filter>
</defs>
</svg>
