<svg id='icon' xmlns="http://www.w3.org/2000/svg" height="40" viewBox="0 96 960 960" width="40"><path d="M282.666 696q-18.333 0-30.499-12.167Q240 671.667 240 653.334V596h52v48h76V456h52v197.334q0 18.333-12.167 30.499Q395.667 696 377.334 696h-94.668ZM516 696q-15.667 0-25.833-10.167Q480 675.667 480 660v-44h52v28h96v-48.667H516q-15 0-25.5-10.5t-10.5-25.5V492q0-15.667 10.167-25.833Q500.333 456 516 456h128q15.667 0 25.833 10.167Q680 476.333 680 492v44h-52v-28h-96v48.667h112q15 0 25.5 10.5t10.5 25.5V660q0 15.667-10.167 25.833Q659.667 696 644 696H516Z"/></svg>