<svg width="34" height="26" viewBox="0 0 34 26" fill="none" xmlns="http://www.w3.org/2000/svg">
<g filter="url(#filter0_d_3_3)">
<path d="M13.8658 0.271999H14.8658V-0.728001H13.8658V0.271999ZM12.5938 15.944L13.2872 16.6646L13.2941 16.6578L12.5938 15.944ZM5.84975 15.92L5.14261 16.6271L5.14941 16.6338L5.84975 15.92ZM4.57775 12.464V11.464H3.57775V12.464H4.57775ZM6.76175 12.464L7.76156 12.4444L7.74233 11.464H6.76175V12.464ZM7.38575 14.456L6.59773 15.0716L6.60361 15.0792L6.60964 15.0866L7.38575 14.456ZM11.0578 14.504L11.826 15.1442L11.8311 15.138L11.8362 15.1318L11.0578 14.504ZM11.6578 0.271999V-0.728001H10.6578V0.271999H11.6578ZM12.8658 0.271999V12.632H14.8658V0.271999H12.8658ZM12.8658 12.632C12.8658 13.7856 12.5191 14.6163 11.8934 15.2302L13.2941 16.6578C14.3644 15.6077 14.8658 14.2304 14.8658 12.632H12.8658ZM11.9004 15.2234C11.2722 15.8279 10.4177 16.168 9.23375 16.168V18.168C10.8338 18.168 12.2193 17.6921 13.2871 16.6646L11.9004 15.2234ZM9.23375 16.168C8.0357 16.168 7.17705 15.8213 6.55009 15.2062L5.14941 16.6338C6.21845 17.6827 7.6158 18.168 9.23375 18.168V16.168ZM6.55686 15.2129C5.93526 14.5913 5.57775 13.7153 5.57775 12.464H3.57775C3.57775 14.1247 4.06824 15.5527 5.14264 16.6271L6.55686 15.2129ZM4.57775 13.464H6.76175V11.464H4.57775V13.464ZM5.76194 12.4836C5.78108 13.4598 6.03363 14.3496 6.59773 15.0716L8.17377 13.8404C7.93787 13.5384 7.77442 13.1002 7.76156 12.4444L5.76194 12.4836ZM6.60964 15.0866C7.25993 15.887 8.19491 16.224 9.23375 16.224V14.224C8.64059 14.224 8.34357 14.049 8.16186 13.8254L6.60964 15.0866ZM9.23375 16.224C10.2492 16.224 11.1814 15.9177 11.826 15.1442L10.2895 13.8638C10.1341 14.0503 9.85035 14.224 9.23375 14.224V16.224ZM11.8362 15.1318C12.4044 14.4272 12.6578 13.5695 12.6578 12.632H10.6578C10.6578 13.1985 10.5111 13.5888 10.2793 13.8762L11.8362 15.1318ZM12.6578 12.632V0.271999H10.6578V12.632H12.6578ZM11.6578 1.272H13.8658V-0.728001H11.6578V1.272ZM20.4963 16.592L20.0762 17.4995L20.0862 17.5041L20.0964 17.5085L20.4963 16.592ZM18.4563 14.96L17.6388 15.536L17.6451 15.5448L18.4563 14.96ZM17.6883 12.536V11.536H16.6706L16.6885 12.5535L17.6883 12.536ZM20.0163 12.536L21.0111 12.4345L20.9195 11.536H20.0163V12.536ZM20.9763 14.528L20.2795 15.2453L20.2899 15.2554L20.3006 15.2652L20.9763 14.528ZM25.9203 14.552L26.5745 15.3084L26.576 15.307L25.9203 14.552ZM26.3043 10.976L25.5536 11.6366L25.5536 11.6366L26.3043 10.976ZM24.9843 10.064L24.6178 10.9944L24.6178 10.9944L24.9843 10.064ZM22.8483 9.392L23.1071 8.42603L23.1007 8.42438L22.8483 9.392ZM20.1843 8.528L19.7823 9.44368L19.7904 9.44714L20.1843 8.528ZM18.4803 7.184L17.6779 7.7807L17.6865 7.7923L17.6954 7.80364L18.4803 7.184ZM18.4803 2.264L19.3153 2.81431L19.3153 2.81431L18.4803 2.264ZM20.4243 0.631999L20.0118 -0.278979L20.0053 -0.27596L20.4243 0.631999ZM27.1683 1.232L26.5482 2.01658L26.5544 2.02135L27.1683 1.232ZM28.8723 4.352V5.352H29.9759L29.8675 4.25371L28.8723 4.352ZM26.4723 4.352L25.48 4.47603L25.5895 5.352H26.4723V4.352ZM25.4643 2.672L24.8221 3.43852L24.8283 3.44369L24.8345 3.44876L25.4643 2.672ZM20.8803 2.648L21.5076 3.42675L21.5141 3.42154L21.5205 3.41622L20.8803 2.648ZM20.5203 6.104L19.7677 6.7625L19.7753 6.7712L19.7832 6.77972L20.5203 6.104ZM21.7923 6.992L21.4056 7.91419L21.4233 7.9216L21.4412 7.92833L21.7923 6.992ZM23.9283 7.664L23.6581 8.6268L23.6628 8.62812L23.9283 7.664ZM26.5923 8.576L26.1801 9.48711L26.1892 9.49122L26.1984 9.49514L26.5923 8.576ZM28.3203 9.944L27.5276 10.5538L27.5354 10.5636L28.3203 9.944ZM28.3923 14.744L29.2498 15.2585L29.2498 15.2585L28.3923 14.744ZM26.4723 16.496L26.0052 15.6118L26.4723 16.496ZM23.4723 16.168C22.4855 16.168 21.6326 15.9968 20.8963 15.6755L20.0964 17.5085C21.12 17.9552 22.2512 18.168 23.4723 18.168V16.168ZM20.9164 15.6845C20.1889 15.3477 19.6512 14.9074 19.2675 14.3752L17.6451 15.5448C18.2534 16.3886 19.0758 17.0363 20.0762 17.4995L20.9164 15.6845ZM19.2738 14.384C18.9001 13.8537 18.7009 13.2428 18.6882 12.5185L16.6885 12.5535C16.7078 13.6532 17.0205 14.6583 17.6388 15.536L19.2738 14.384ZM17.6883 13.536H20.0163V11.536H17.6883V13.536ZM19.0215 12.6375C19.1251 13.653 19.5491 14.5358 20.2795 15.2453L21.6731 13.8107C21.2835 13.4322 21.0675 12.987 21.0111 12.4345L19.0215 12.6375ZM20.3006 15.2652C21.1227 16.0187 22.2327 16.32 23.4723 16.32V14.32C22.5359 14.32 21.982 14.0933 21.652 13.7908L20.3006 15.2652ZM23.4723 16.32C24.6726 16.32 25.7482 16.0229 26.5745 15.3084L25.2662 13.7956C24.9084 14.1051 24.352 14.32 23.4723 14.32V16.32ZM26.576 15.307C27.406 14.5862 27.8323 13.6372 27.8323 12.536H25.8323C25.8323 13.0668 25.6506 13.4618 25.2646 13.797L26.576 15.307ZM27.8323 12.536C27.8323 11.7042 27.5987 10.9331 27.055 10.3154L25.5536 11.6366C25.714 11.8189 25.8323 12.0878 25.8323 12.536H27.8323ZM27.055 10.3154C26.5914 9.78852 26.0166 9.39587 25.3508 9.13359L24.6178 10.9944C25.008 11.1481 25.3132 11.3635 25.5536 11.6366L27.055 10.3154ZM25.3508 9.13359C24.7726 8.90582 24.0198 8.67055 23.107 8.42605L22.5896 10.3579C23.4688 10.5935 24.14 10.8062 24.6178 10.9944L25.3508 9.13359ZM23.1007 8.42438C22.0215 8.14284 21.1864 7.86949 20.5782 7.60885L19.7904 9.44714C20.5262 9.76251 21.4671 10.0652 22.5959 10.3596L23.1007 8.42438ZM20.5863 7.61236C20.0923 7.39546 19.6522 7.05453 19.2652 6.56436L17.6954 7.80364C18.2684 8.52947 18.9644 9.08454 19.7823 9.44364L20.5863 7.61236ZM19.2828 6.5873C18.9842 6.18572 18.7843 5.58492 18.7843 4.688H16.7843C16.7843 5.87108 17.0485 6.93428 17.6779 7.7807L19.2828 6.5873ZM18.7843 4.688C18.7843 3.95494 18.9678 3.34156 19.3153 2.81431L17.6454 1.71369C17.0649 2.59443 16.7843 3.59706 16.7843 4.688H18.7843ZM19.3153 2.81431C19.6678 2.27941 20.1654 1.85287 20.8434 1.53996L20.0053 -0.27596C19.0192 0.179124 18.2208 0.840589 17.6454 1.71369L19.3153 2.81431ZM20.8368 1.54295C21.5352 1.22672 22.3588 1.056 23.3283 1.056V-0.944001C22.1218 -0.944001 21.0095 -0.730726 20.0118 -0.278955L20.8368 1.54295ZM23.3283 1.056C24.7266 1.056 25.7718 1.40292 26.5483 2.01656L27.7884 0.447441C26.5808 -0.506923 25.066 -0.944001 23.3283 -0.944001V1.056ZM26.5544 2.02135C27.3411 2.63327 27.7755 3.42105 27.8772 4.45029L29.8675 4.25371C29.7131 2.69095 29.0115 1.39873 27.7823 0.442647L26.5544 2.02135ZM28.8723 3.352H26.4723V5.352H28.8723V3.352ZM27.4646 4.22797C27.3468 3.28599 26.8477 2.50629 26.0941 1.89524L24.8345 3.44876C25.2649 3.79771 25.4378 4.13801 25.48 4.47603L27.4646 4.22797ZM26.1065 1.90548C25.2912 1.22235 24.2596 0.927999 23.1123 0.927999V2.928C23.917 2.928 24.4534 3.12965 24.8221 3.43852L26.1065 1.90548ZM23.1123 0.927999C22.0189 0.927999 21.0324 1.21952 20.2401 1.87978L21.5205 3.41622C21.8802 3.11648 22.3817 2.928 23.1123 2.928V0.927999ZM20.253 1.86925C19.405 2.55231 19.0163 3.5153 19.0163 4.616H21.0163C21.0163 4.0207 21.2036 3.67169 21.5076 3.42675L20.253 1.86925ZM19.0163 4.616C19.0163 5.41742 19.2428 6.16256 19.7677 6.7625L21.2729 5.44549C21.1258 5.27744 21.0163 5.03058 21.0163 4.616H19.0163ZM19.7832 6.77972C20.236 7.27373 20.7808 7.65218 21.4056 7.91419L22.179 6.0698C21.8118 5.91582 21.5086 5.70227 21.2575 5.42828L19.7832 6.77972ZM21.4412 7.92833C21.9921 8.13492 22.7354 8.36779 23.6581 8.62679L24.1986 6.70121C23.2973 6.44821 22.6165 6.23308 22.1434 6.05567L21.4412 7.92833ZM23.6628 8.62812C24.7408 8.92495 25.574 9.21289 26.1801 9.48711L27.0045 7.66489C26.2666 7.33111 25.3238 7.01105 24.1938 6.69988L23.6628 8.62812ZM26.1984 9.49514C26.7012 9.71065 27.1437 10.0545 27.5277 10.5537L29.1129 9.33429C28.5369 8.58548 27.8274 8.01735 26.9862 7.65685L26.1984 9.49514ZM27.5354 10.5636C27.8331 10.9407 28.0403 11.5279 28.0403 12.44H30.0403C30.0403 11.2401 29.7675 10.1633 29.1052 9.32436L27.5354 10.5636ZM28.0403 12.44C28.0403 13.0693 27.8764 13.6602 27.5348 14.2295L29.2498 15.2585C29.7722 14.3878 30.0403 13.4427 30.0403 12.44H28.0403ZM27.5348 14.2295C27.2095 14.7717 26.7152 15.2367 26.0052 15.6118L26.9394 17.3802C27.9254 16.8593 28.7111 16.1563 29.2498 15.2585L27.5348 14.2295ZM26.0052 15.6118C25.3274 15.9699 24.494 16.168 23.4723 16.168V18.168C24.7546 18.168 25.9212 17.9181 26.9394 17.3802L26.0052 15.6118Z" fill="white"/>
</g>
<defs>
<filter id="filter0_d_3_3" x="0.577749" y="0.0559998" width="32.4626" height="25.112" filterUnits="userSpaceOnUse" color-interpolation-filters="sRGB">
<feFlood flood-opacity="0" result="BackgroundImageFix"/>
<feColorMatrix in="SourceAlpha" type="matrix" values="0 0 0 0 0 0 0 0 0 0 0 0 0 0 0 0 0 0 127 0" result="hardAlpha"/>
<feOffset dy="4"/>
<feGaussianBlur stdDeviation="2"/>
<feComposite in2="hardAlpha" operator="out"/>
<feColorMatrix type="matrix" values="0 0 0 0 0 0 0 0 0 0 0 0 0 0 0 0 0 0 0.25 0"/>
<feBlend mode="normal" in2="BackgroundImageFix" result="effect1_dropShadow_3_3"/>
<feBlend mode="normal" in="SourceGraphic" in2="effect1_dropShadow_3_3" result="shape"/>
</filter>
</defs>
</svg>
